<?xml version="1.0" encoding="utf-8"?>
<!-- Generator: Adobe Illustrator 23.0.3, SVG Export Plug-In . SVG Version: 6.00 Build 0)  -->
<svg version="1.1" id="Capa_1" xmlns="http://www.w3.org/2000/svg" xmlns:xlink="http://www.w3.org/1999/xlink" x="0px" y="0px"
	 viewBox="0 0 604.8 491.1" style="enable-background:new 0 0 604.8 491.1;" xml:space="preserve">
<style type="text/css">
	.st0{fill:url(#SVGID_1_);}
	.st1{fill:url(#SVGID_2_);}
	.st2{fill:url(#SVGID_3_);}
	.st3{fill:url(#SVGID_4_);}
	.st4{fill:url(#SVGID_5_);}
	.st5{fill:url(#SVGID_6_);}
</style>
<g>
	<g>
		<g>
			<linearGradient id="SVGID_1_" gradientUnits="userSpaceOnUse" x1="241.5308" y1="169.7278" x2="379.9545" y2="342.1416">
				<stop  offset="0" style="stop-color:#04FFFF"/>
				<stop  offset="1" style="stop-color:#8000FF"/>
			</linearGradient>
			<path class="st0" d="M324.7,241.4c-1.4-2.1-3.7-3.3-6.2-3.3l-21,0l11.9-29.8c1.5-3.8-0.3-8.2-4.2-9.7c-3.8-1.5-8.2,0.3-9.7,4.2
				l-16,40.1c-0.9,2.3-0.6,4.9,0.8,7c1.4,2.1,3.7,3.3,6.2,3.3l21,0l-11.9,29.8c-1.5,3.8,0.3,8.2,4.2,9.7c0.9,0.4,1.9,0.5,2.8,0.5
				c3,0,5.8-1.8,7-4.7l16-40.1C326.3,246,326.1,243.4,324.7,241.4z"/>
		</g>
	</g>
	<g>
		<linearGradient id="SVGID_2_" gradientUnits="userSpaceOnUse" x1="241.5312" y1="169.7275" x2="379.9548" y2="342.1413">
			<stop  offset="0" style="stop-color:#04FFFF"/>
			<stop  offset="1" style="stop-color:#8000FF"/>
		</linearGradient>
		<path class="st1" d="M604.8,246.7c0.3-38-14-73.9-40.3-101.1c-26.2-27.2-62.1-42.3-100.9-42.6c-39.9-0.3-78.8,15.5-106.7,43.4
			l-20.5,20.5l-17.4-17.4c-9.2-9.2-24.1-9.2-33.3,0l-79.4,79.4c-9.2,9.2-9.2,24.1,0,33.3l17.4,17.4l-23,23
			c-16,16-38.2,24.6-60.9,23.5c-23-1.1-43.7-11.5-58.5-29.3c-26.2-31.6-23.1-80,7.1-110.1c2.9-2.9,2.9-7.7,0-10.6
			c-2.9-2.9-7.7-2.9-10.6,0c-17.1,17.1-27.4,39.8-29.1,63.8c-1.7,24.4,5.8,48.1,21.1,66.5c2,2.4,4.1,4.7,6.3,6.9
			c16.9,16.9,38.9,26.6,63,27.8c26.9,1.3,53.2-8.9,72.2-27.9l23-23l23.4,23.4l-20.5,20.5c-25.1,25.1-60.1,39.3-95.9,39
			c-34.8-0.3-66.8-13.8-90.3-38c-23.6-24.4-36.4-56.5-36.1-90.5c0.3-34.1,13.6-66,37.6-90l73.7-73.7c0.2-0.2,0.5-0.2,0.7,0
			l22.7,22.7c0.2,0.2,0.2,0.5,0,0.7l-48.9,48.9c-2.9,2.9-2.9,7.7,0,10.6c2.9,2.9,7.7,2.9,10.6,0l48.9-48.9c6.1-6,6.1-15.9,0-21.9
			l-6-6L183,58.2c2.9-2.9,2.9-7.7,0-10.6c-2.9-2.9-7.7-2.9-10.6,0l-28.7,28.7l-6-6c-6-6.1-15.9-6.1-21.9,0L42,143.9
			C15.2,170.7,0.3,206.4,0,244.4c-0.3,38,14,73.9,40.3,101.1c0.5,0.6,1.1,1.1,1.6,1.7c26.1,26.1,61.3,40.6,99.3,40.9
			c39.9,0.3,78.8-15.5,106.7-43.4l20.5-20.5l17.4,17.4c9.2,9.2,24.1,9.2,33.3,0l79.4-79.4c9.2-9.2,9.2-24.1,0-33.3L381,211.6l23-23
			c16-16,38.2-24.6,60.9-23.5c23,1.1,43.7,11.5,58.5,29.3c26.2,31.6,23.1,80-7.1,110.1c-2.9,2.9-2.9,7.7,0,10.6s7.7,2.9,10.6,0
			c17.1-17.1,27.4-39.8,29.1-63.8c1.7-24.4-5.8-48.1-21.1-66.5c-17.5-21.1-42.1-33.4-69.3-34.7c-26.9-1.3-53.2,8.9-72.2,27.9l-23,23
			L347,177.5l20.5-20.5c25.1-25.1,60.1-39.3,95.9-39c34.8,0.3,66.8,13.8,90.3,38c23.6,24.4,36.4,56.5,36.1,90.5
			c-0.3,34.1-13.6,66-37.6,90l-73.7,73.7c-0.2,0.2-0.5,0.2-0.7,0l-22.7-22.7c-0.2-0.2-0.2-0.5,0-0.7L504,338c2.9-2.9,2.9-7.7,0-10.6
			s-7.7-2.9-10.6,0l-48.9,48.9c-6,6.1-6.1,15.9,0,21.9l6,6L421.8,433c-2.9,2.9-2.9,7.7,0,10.6c2.9,2.9,7.7,2.9,10.6,0l28.7-28.7l6,6
			c6,6.1,15.9,6.1,21.9,0l73.7-73.7C589.6,320.4,604.5,284.7,604.8,246.7z M387.8,239.5c3.3,3.3,3.3,8.7,0,12.1L308.5,331
			c-3.3,3.3-8.7,3.3-12.1,0L217,251.6c-3.3-3.3-3.3-8.7,0-12.1l79.4-79.4c3.3-3.3,8.7-3.3,12.1,0L387.8,239.5z"/>
	</g>
	<g>
		<g>
			<linearGradient id="SVGID_3_" gradientUnits="userSpaceOnUse" x1="282.9444" y1="136.4787" x2="421.368" y2="308.8925">
				<stop  offset="0" style="stop-color:#04FFFF"/>
				<stop  offset="1" style="stop-color:#8000FF"/>
			</linearGradient>
			<path class="st2" d="M190.5,26.9l5.7-17c1.3-3.9-0.8-8.2-4.7-9.5c-3.9-1.3-8.2,0.8-9.5,4.7l-5.7,17c-0.9,2.8-0.1,5.7,1.8,7.7
				c0.8,0.8,1.8,1.4,2.9,1.8C184.9,32.9,189.2,30.8,190.5,26.9z"/>
		</g>
	</g>
	<g>
		<g>
			<linearGradient id="SVGID_4_" gradientUnits="userSpaceOnUse" x1="286.3415" y1="133.7513" x2="424.7651" y2="306.1651">
				<stop  offset="0" style="stop-color:#04FFFF"/>
				<stop  offset="1" style="stop-color:#8000FF"/>
			</linearGradient>
			<path class="st3" d="M230.2,39.1c-1.3-3.9-5.6-6.1-9.5-4.7l-17,5.7c-3.9,1.3-6.1,5.6-4.7,9.5c0.4,1.1,1,2.1,1.8,2.9
				c1.9,1.9,4.9,2.7,7.7,1.8l17-5.7C229.4,47.3,231.5,43.1,230.2,39.1z"/>
		</g>
	</g>
	<g>
		<g>
			<linearGradient id="SVGID_5_" gradientUnits="userSpaceOnUse" x1="200.1174" y1="202.9769" x2="338.5411" y2="375.3907">
				<stop  offset="0" style="stop-color:#04FFFF"/>
				<stop  offset="1" style="stop-color:#8000FF"/>
			</linearGradient>
			<path class="st4" d="M422.9,486l5.7-17c1.3-3.9-0.8-8.2-4.7-9.5c-3.9-1.3-8.2,0.8-9.5,4.7l-5.7,17c-0.9,2.8-0.1,5.7,1.8,7.7
				c0.8,0.8,1.8,1.4,2.9,1.8C417.3,492.1,421.6,489.9,422.9,486z"/>
		</g>
	</g>
	<g>
		<g>
			<linearGradient id="SVGID_6_" gradientUnits="userSpaceOnUse" x1="196.72" y1="205.7046" x2="335.1436" y2="378.1183">
				<stop  offset="0" style="stop-color:#04FFFF"/>
				<stop  offset="1" style="stop-color:#8000FF"/>
			</linearGradient>
			<path class="st5" d="M405.9,441.6c-1.3-3.9-5.6-6.1-9.5-4.7l-17,5.7c-3.9,1.3-6.1,5.6-4.7,9.5c0.4,1.1,1,2.1,1.8,2.9
				c1.9,1.9,4.9,2.7,7.7,1.8l17-5.7C405.1,449.8,407.2,445.5,405.9,441.6z"/>
		</g>
	</g>
</g>
</svg>